<svg width="43" height="62" viewBox="0 0 43 62" fill="none" xmlns="http://www.w3.org/2000/svg">
<path d="M26.728 1.82281C29.0628 1.43801 31.6836 1.27161 33.8208 2.46761C35.7864 3.64281 36.2752 6.10241 36.2752 8.22401C36.27 13.2524 36.3064 18.2808 36.2492 23.3144C35.4952 23.304 34.7464 23.2936 33.9924 23.2728C33.9144 18.4316 34.034 13.5852 33.956 8.74401C33.9352 7.00721 33.4204 4.84921 31.564 4.23041C30.056 3.78321 28.3192 3.76241 26.8891 4.46961C25.2719 5.46281 25.1264 7.54281 25.1264 9.24841C25.1316 23.8344 25.1264 38.4204 25.1264 53.0064C25.1264 54.686 25.4072 56.7868 27.0712 57.6448C28.7664 58.3728 30.8723 58.3364 32.4583 57.3536C33.7428 56.3188 33.9352 54.53 33.9716 52.996C34.0184 48.2016 33.904 43.4072 34.0132 38.618C34.7516 38.6128 35.49 38.6128 36.2284 38.6024C36.3428 43.3968 36.2388 48.1964 36.2856 52.996C36.296 55.076 36.1608 57.4212 34.6164 58.9916C33.1656 60.3748 31.0128 60.5464 29.1096 60.5204C27.404 60.4632 25.4955 60.146 24.3151 58.7888C22.8019 57.0676 22.7656 54.6236 22.7448 52.4552C22.7864 37.3648 22.7135 22.2744 22.7759 7.18401C22.6875 4.76601 24.2424 2.26481 26.728 1.82281Z" fill="white"/>
<path d="M15.6936 1.9476C16.4684 1.9632 17.2432 1.984 18.018 2.01C18.0544 19.1804 18.0336 36.3456 18.0284 53.516C18.0232 55.8456 17.4408 58.664 15.1424 59.7872C12.7868 60.7908 9.99961 60.77 7.60241 59.9224C5.4132 59.1424 4.4616 56.714 4.4824 54.5456C4.4356 49.278 4.4252 44.0052 4.5032 38.7376C5.278 38.7272 6.0476 38.7272 6.8224 38.7428C6.8952 43.6724 6.79121 48.602 6.85361 53.5316C6.82761 55.1956 7.4204 57.2184 9.17281 57.7956C11.1748 58.4612 14.1128 58.3104 15.1008 56.1264C15.8496 54.1296 15.6208 51.9404 15.6676 49.85C15.6728 33.8808 15.6156 17.9116 15.6936 1.9476Z" fill="white"/>
</svg>
